# xmcd
#
# Track frame offsets: 
#        7200
#        21537
#        38787
#        53620
#        69070
#        83115
#        99562
#        116590
#        131062
#        148735
#        164340
#
# Disc length: 2357 seconds
#
# Revision: 4
# Processed by: cddbd v1.4PL0 Copyright (c) Steve Scherf et al.
# Submitted via: ExactAudioCopy v0.90b4
#
DISCID=9f08d50b
DTITLE=Diamond Rio - IV
DYEAR=1995
DGENRE=Country
TTITLE0=Holdin'
TTITLE1=Walkin' away
TTITLE2=That's what I get for loving you
TTITLE3=She misses him on sunday the most
TTITLE4=She sure did like to run
TTITLE5=It's all in you head
TTITLE6=Who am I
TTITLE7=Love takes you there
TTITLE8=Is that askin' too much
TTITLE9=Just another heart
TTITLE10=Big (instrumental)
EXTD=
EXTT0=
EXTT1=
EXTT2=
EXTT3=
EXTT4=
EXTT5=
EXTT6=
EXTT7=
EXTT8=
EXTT9=
EXTT10=
PLAYORDER=
